<svg xmlns="http://www.w3.org/2000/svg" viewBox="0 0 1200 1200" role="img" aria-labelledby="title">
<title id="title">Eccomi Online</title>
<path fill="#e31e24" fill-rule="evenodd" d="M544 811L536 816L527 840L523 897L530 914L546 921L560 917L577 901L592 881L599 860L595 842L581 823L565 817L553 819ZM572 826L588 840L592 850L592 865L575 893L556 910L545 912L535 906L530 891L532 855L538 831L542 828L547 833L558 836L560 832L555 829L557 826ZM651 811L644 810L639 814L656 845L660 859L658 866L651 866L631 853L612 826L604 829L609 846L613 881L621 895L630 891L630 888L621 878L620 856L647 874L662 875L666 869L667 855L650 820ZM813 752L806 751L801 755L818 786L822 800L820 807L813 807L793 794L774 767L766 770L771 787L775 822L783 836L792 832L792 829L783 819L782 797L809 815L824 816L828 810L829 796L812 761ZM874 730L842 741L827 756L839 798L849 807L863 805L870 797L876 776L870 774L864 792L859 797L852 798L843 785L842 777L868 760L869 755L863 755L843 766L839 765L837 756L853 743L874 734ZM717 545L708 546L697 542L677 566L668 584L663 608L666 622L673 627L694 623L716 600L721 585L721 558ZM577 150L494 162L411 191L337 234L302 262L271 292L240 329L213 369L177 445L165 483L155 530L150 578L150 621L161 700L174 746L191 788L213 830L237 866L291 927L324 955L369 986L445 1022L487 1035L531 1044L578 1049L622 1049L695 1039L770 1016L846 976L909 926L959 870L994 816L1026 743L1038 700L1044 664L1024 723L995 777L956 828L917 866L659 960L620 957L931 843L927 838L604 956L574 950L923 822L922 818L913 819L563 947L537 939L915 801L914 796L724 864L748 831L752 821L766 820L755 805L748 781L742 780L741 784L751 814L719 855L710 861L701 861L695 858L689 849L677 781L672 777L668 783L681 853L690 866L703 871L528 936L499 926L462 907L418 877L390 852L1049 611L1049 578L1040 508L1016 429L986 369L936 301L266 545L266 529L505 441L503 435L267 520L268 505L271 502L497 420L495 414L270 495L273 479L277 476L490 399L487 393L275 469L279 453L285 449L482 378L479 372L283 442L291 423L474 357L471 351L293 415L302 395L466 336L465 330L314 385L305 386L319 365L459 314L455 309L322 356L336 335L451 293L449 287L343 325L361 302L444 272L441 266L372 290L397 265L436 251L433 245L415 252L421 245L459 219L491 202L535 184L574 173L639 164L684 164L736 171L662 154L621 150ZM896 882L868 902L835 920L761 947L714 957L683 958L887 883ZM487 612L494 620L494 627L486 637L471 638L469 631L462 631L442 644L429 659L423 674L427 691L437 700L450 705L467 705L497 696L517 686L522 679L537 673L539 675L533 687L500 707L462 721L439 720L421 713L407 695L403 683L404 665L411 652L435 627L451 617L475 610ZM376 559L384 563L387 571L362 589L277 669L279 699L286 723L372 657L385 665L381 675L326 715L316 726L300 736L291 747L290 761L301 810L314 833L324 841L335 836L342 827L349 812L356 805L363 786L387 751L388 744L402 739L410 751L386 782L347 848L332 858L323 858L313 854L299 836L286 808L287 802L284 799L277 759L268 757L263 750L265 741L271 736L263 690L261 688L248 694L241 686L241 680L255 663L246 625L253 618L261 618L272 627L274 641L279 641L283 634L314 611L332 591L350 579L369 560ZM731 530L737 549L738 592L734 605L726 616L699 641L673 649L663 647L653 639L649 647L634 657L580 679L548 676L539 671L525 653L521 641L521 627L532 606L562 579L579 570L601 568L612 578L611 588L599 597L589 596L587 589L580 589L560 602L547 617L542 628L541 637L545 649L555 658L568 663L585 663L605 658L635 644L640 637L649 634L642 624L642 600L650 574L666 545L694 519L710 517ZM870 460L884 485L891 524L898 543L902 547L920 543L920 553L903 567L892 567L886 561L875 543L866 496L856 533L847 547L831 563L823 567L804 568L789 556L773 535L785 591L791 600L800 604L795 617L781 622L765 594L754 547L749 511L751 504L774 497L797 534L810 545L822 547L841 526L850 490L850 464L857 459ZM910 455L919 454L926 462L942 514L959 527L956 535L947 539L941 538L928 528L920 511L915 483L906 463Z"/>
<path fill="#374151" fill-rule="evenodd" d="M485 612L462 613L451 618L434 629L412 653L405 666L404 681L407 693L421 712L440 719L465 719L502 705L523 694L532 686L537 674L527 680L523 680L516 688L493 699L468 706L450 706L438 702L426 692L422 680L422 671L427 660L444 641L461 630L469 629L471 637L487 635L492 629L493 621ZM376 560L369 561L350 580L333 592L314 612L284 635L279 642L275 643L270 634L271 627L263 620L254 619L247 626L251 636L250 640L253 645L256 663L242 680L242 685L249 693L262 686L264 689L272 726L272 736L265 743L265 752L269 756L278 758L285 797L288 802L287 807L291 813L290 817L301 837L304 838L306 845L313 853L324 857L334 856L345 849L354 837L384 783L394 773L396 767L409 751L402 740L389 744L389 750L384 754L364 786L357 805L352 809L342 829L334 838L324 842L312 832L300 811L289 763L290 746L325 714L338 707L345 699L354 694L372 678L382 673L384 666L377 659L372 659L337 683L311 706L286 724L280 711L275 670L363 587L386 571L383 563L379 563ZM729 529L716 520L709 518L695 520L686 525L667 546L666 551L651 574L643 602L643 623L651 634L641 638L634 646L611 657L586 664L568 664L556 660L544 650L540 638L540 629L545 618L562 599L579 588L587 587L589 595L601 595L610 587L611 579L603 570L580 571L552 587L530 611L522 629L523 645L528 656L539 670L549 675L578 678L602 671L628 659L647 647L653 638L663 646L674 648L683 647L709 633L724 617L733 604L737 591L735 547ZM718 544L723 563L723 583L717 600L709 611L693 625L679 629L671 627L664 620L662 605L667 583L682 556L686 554L697 540L702 544ZM869 461L858 460L852 463L851 492L843 524L822 548L816 549L811 547L796 534L774 499L766 499L752 504L751 515L755 530L758 562L762 570L767 596L781 620L787 620L795 616L799 604L789 600L785 594L780 580L779 564L772 541L773 533L779 544L803 566L817 568L831 562L845 548L848 540L855 533L866 495L870 504L878 548L893 566L902 566L921 549L920 544L914 544L903 549L896 542L890 525L885 499L886 494L875 468ZM910 456L908 461L909 469L917 486L922 513L930 529L941 537L955 534L958 528L949 519L946 520L939 511L924 461L918 455Z"/>
</svg>